<svg viewBox="0 0 1500 1125" fill="none" xmlns="http://www.w3.org/2000/svg">
<path d="M273.679 316.064H355.314C362.117 316.064 368.92 322.905 368.92 329.745V795.552C368.92 802.834 363.068 808.718 355.826 808.718H273.606C266.145 808.718 260 802.54 260 795.037V329.745C260.073 322.905 266.876 316.064 273.679 316.064Z" fill="#1C1C1C"/>
<path d="M1212.72 493.923L1049.37 329.681C1035.77 316 1022.16 316 994.95 316H899.709C892.175 316 886.104 322.105 886.104 329.681V794.973C886.104 802.549 892.175 808.654 899.709 808.654H980.978C988.732 808.654 994.95 802.328 994.95 794.605V448.394C994.95 439.936 1005.12 435.743 1011.04 441.701L1122.16 553.427C1127.06 558.355 1127.06 566.372 1122.16 571.374L1052.01 641.91C1050.32 643.602 1049.45 645.809 1049.45 648.236V778.276C1049.45 784.455 1056.91 787.618 1061.3 783.204L1212.79 630.878C1233.2 603.516 1240 589.835 1240 562.474C1240 535.112 1233.12 521.358 1212.72 493.923Z" fill="#1C1C1C"/>
<path d="M818.061 316.068H722.821C695.609 316.068 682.003 316.068 668.398 329.749L431.54 567.912C426.346 573.134 423.42 580.195 423.42 587.55V708.396C423.42 715.09 431.466 718.473 436.148 713.692L706.655 441.696C712.653 435.664 722.821 439.93 722.821 448.463V673.901C722.821 682.947 711.848 687.287 705.704 680.667L634.017 603.437C630.506 599.613 624.508 599.539 620.85 603.217L559.551 664.854C555.747 668.678 555.674 674.93 559.332 678.902L668.324 794.968C681.93 808.648 695.536 808.648 722.748 808.648H817.988C825.523 808.648 831.594 802.544 831.594 794.968V329.676C831.667 322.173 825.523 316.068 818.061 316.068Z" fill="#1C1C1C"/>
</svg>
